<svg width="36" height="40" viewBox="0 0 36 40" fill="none" xmlns="http://www.w3.org/2000/svg">
<g clip-path="url(#clip0_84_62)">
<path fill-rule="evenodd" clip-rule="evenodd" d="M18 0C8.0625 0 0 8.95833 0 20C0 31.0417 8.0625 40 18 40C27.918 40 36 31.0417 36 20C36 8.95833 27.918 0 18 0ZM29.889 9.21833C32.1052 12.2172 33.3316 15.9682 33.3645 19.8483C32.8575 19.74 27.7815 18.59 22.6665 19.3067C22.548 19.0233 22.4505 18.72 22.3335 18.4167C22.0154 17.5823 21.6773 16.7576 21.3195 15.9433C26.9805 13.3833 29.5575 9.69667 29.889 9.21833V9.21833ZM18 2.95167C21.9045 2.95167 25.4775 4.57667 28.191 7.245C27.918 7.67833 25.5945 11.1283 20.1285 13.405C17.6085 8.265 14.8185 4.055 14.388 3.405C15.572 3.09781 16.7842 2.94512 18 2.95V2.95167ZM11.46 4.555C11.8695 5.16333 14.6025 9.39333 17.16 14.425C9.975 16.5517 3.63 16.5083 2.9475 16.5083C3.9435 11.215 7.1655 6.81167 11.46 4.555ZM2.616 20.0217V19.5017C3.2805 19.5233 10.737 19.6317 18.411 17.0717C18.8595 18.0267 19.269 19.0017 19.659 19.9783C19.464 20.0433 19.2495 20.1083 19.0545 20.1733C11.1285 23.015 6.9105 30.78 6.5595 31.4317C4.02062 28.3009 2.6157 24.2359 2.616 20.0217V20.0217ZM18 37.0933C14.4465 37.0933 11.1675 35.7483 8.571 33.4933C8.844 32.8633 11.967 26.1817 20.6355 22.82C20.6745 22.7983 20.6955 22.7983 20.733 22.7767C22.9005 29.0017 23.778 34.23 24.0135 35.7267C22.158 36.6167 20.1285 37.0933 18 37.0933ZM26.571 34.165C26.415 33.1233 25.5945 28.135 23.583 21.995C28.4055 21.15 32.622 22.5383 33.15 22.7333C32.4855 27.4833 30.0255 31.5833 26.571 34.165Z" fill="white"/>
</g>
<defs>
<clipPath id="clip0_84_62">
<rect width="36" height="40" fill="white"/>
</clipPath>
</defs>
</svg>
