<svg width="36" height="40" viewBox="0 0 36 40" fill="none" xmlns="http://www.w3.org/2000/svg">
<g clip-path="url(#clip0_84_56)">
<path fill-rule="evenodd" clip-rule="evenodd" d="M0 20.1117C0 30.055 6.4995 38.3233 15 40V25.555H10.5V20H15V15.555C15 10.555 17.8995 7.77833 22.0005 7.77833C23.2995 7.77833 24.7005 8 25.9995 8.22167V13.3333H23.7C21.4995 13.3333 21 14.555 21 16.1117V20H25.8L25.0005 25.555H21V40C29.5005 38.3233 36 30.0567 36 20.1117C36 9.05 27.9 0 18 0C8.1 0 0 9.05 0 20.1117Z" fill="white"/>
</g>
<defs>
<clipPath id="clip0_84_56">
<rect width="36" height="40" fill="white"/>
</clipPath>
</defs>
</svg>
