<svg width="19" height="20" viewBox="0 0 19 20" fill="none" xmlns="http://www.w3.org/2000/svg">
<g clip-path="url(#clip0_82_48)">
<path d="M1.50811 5.00016C1.50811 4.55814 1.667 4.13421 1.94983 3.82165C2.23266 3.50909 2.61625 3.3335 3.01623 3.3335H15.0812C15.4811 3.3335 15.8647 3.50909 16.1475 3.82165C16.4304 4.13421 16.5893 4.55814 16.5893 5.00016V15.0002C16.5893 15.4422 16.4304 15.8661 16.1475 16.1787C15.8647 16.4912 15.4811 16.6668 15.0812 16.6668H3.01623C2.61625 16.6668 2.23266 16.4912 1.94983 16.1787C1.667 15.8661 1.50811 15.4422 1.50811 15.0002V5.00016Z" stroke="white" stroke-width="2" stroke-linecap="round" stroke-linejoin="round"/>
<path d="M1.50811 6.6665L7.1643 11.6673C7.69914 12.1403 8.36372 12.3979 9.04869 12.3979C9.73366 12.3979 10.3982 12.1403 10.9331 11.6673L16.5893 6.6665" stroke="white" stroke-width="2" stroke-linecap="round" stroke-linejoin="round"/>
</g>
<defs>
<clipPath id="clip0_82_48">
<rect width="18.0974" height="20" fill="white"/>
</clipPath>
</defs>
</svg>
