<svg width="19" height="20" viewBox="0 0 19 20" fill="none" xmlns="http://www.w3.org/2000/svg">
<g clip-path="url(#clip0_84_52)">
<path d="M7.95832 5.20019L5.40734 1.94602C5.11326 1.57102 4.57411 1.57269 4.23252 1.95102L2.13474 4.27352C1.51038 4.96435 1.33167 5.99019 1.69286 6.81269C3.85068 11.7502 7.45389 15.7378 11.9186 18.1294C12.6621 18.5285 13.5896 18.331 14.214 17.6402L16.3314 15.296C16.6745 14.9169 16.6752 14.3177 16.3329 13.9927L13.377 11.1885C13.0678 10.8952 12.5875 10.9335 12.2776 11.2769L11.249 12.4152C11.1964 12.4762 11.1271 12.5164 11.0517 12.5296C10.9764 12.5429 10.8992 12.5284 10.832 12.4885C9.15082 11.4186 7.75623 9.87538 6.79029 8.01602C6.75411 7.94165 6.74101 7.85621 6.753 7.77282C6.76499 7.68942 6.8014 7.61268 6.85664 7.55435L7.88216 6.42019C8.19283 6.07519 8.22677 5.54185 7.95832 5.19935V5.20019Z" stroke="white" stroke-width="2" stroke-linecap="round" stroke-linejoin="round"/>
</g>
<defs>
<clipPath id="clip0_84_52">
<rect width="18.0974" height="20" fill="white"/>
</clipPath>
</defs>
</svg>
