<svg width="36" height="40" viewBox="0 0 36 40" fill="none" xmlns="http://www.w3.org/2000/svg">
<path fill-rule="evenodd" clip-rule="evenodd" d="M11.1975 1.7765C12.957 1.6865 13.518 1.6665 18 1.6665C22.482 1.6665 23.043 1.68817 24.801 1.7765C26.559 1.86484 27.759 2.1765 28.809 2.62817C29.9085 3.08984 30.906 3.8115 31.731 4.74484C32.571 5.65984 33.219 6.7665 33.633 7.98984C34.041 9.1565 34.32 10.4898 34.401 12.4398C34.482 14.3982 34.5 15.0215 34.5 19.9998C34.5 24.9798 34.4805 25.6032 34.401 27.5582C34.3215 29.5082 34.041 30.8415 33.633 32.0082C33.219 33.2317 32.5699 34.3402 31.731 35.2565C30.906 36.1898 29.9085 36.9098 28.809 37.3698C27.759 37.8232 26.559 38.1332 24.804 38.2232C23.043 38.3132 22.482 38.3332 18 38.3332C13.518 38.3332 12.957 38.3115 11.1975 38.2232C9.4425 38.1348 8.2425 37.8232 7.1925 37.3698C6.09138 36.9098 5.09373 36.1886 4.269 35.2565C3.42957 34.341 2.77997 33.233 2.3655 32.0098C1.959 30.8432 1.68 29.5098 1.599 27.5598C1.518 25.6015 1.5 24.9782 1.5 19.9998C1.5 15.0198 1.5195 14.3965 1.599 12.4432C1.6785 10.4898 1.959 9.1565 2.3655 7.98984C2.78058 6.76664 3.43068 5.65869 4.2705 4.74317C5.09406 3.81067 6.09071 3.08891 7.191 2.62817C8.241 2.1765 9.441 1.8665 11.196 1.7765H11.1975ZM24.6675 5.0765C22.9275 4.98817 22.4055 4.96984 18 4.96984C13.5945 4.96984 13.0725 4.98817 11.3325 5.0765C9.723 5.15817 8.85 5.4565 8.268 5.70817C7.4985 6.0415 6.948 6.4365 6.3705 7.07817C5.82307 7.66992 5.40177 8.39031 5.1375 9.1865C4.911 9.83317 4.6425 10.8032 4.569 12.5915C4.4895 14.5248 4.473 15.1048 4.473 19.9998C4.473 24.8948 4.4895 25.4748 4.569 27.4082C4.6425 29.1965 4.911 30.1665 5.1375 30.8132C5.4015 31.6082 5.823 32.3298 6.3705 32.9215C6.903 33.5298 7.5525 33.9982 8.268 34.2915C8.85 34.5432 9.723 34.8415 11.3325 34.9232C13.0725 35.0115 13.593 35.0298 18 35.0298C22.407 35.0298 22.9275 35.0115 24.6675 34.9232C26.277 34.8415 27.15 34.5432 27.732 34.2915C28.5015 33.9582 29.052 33.5632 29.6295 32.9215C30.177 32.3298 30.5985 31.6082 30.8625 30.8132C31.089 30.1665 31.3575 29.1965 31.431 27.4082C31.5105 25.4748 31.527 24.8948 31.527 19.9998C31.527 15.1048 31.5105 14.5248 31.431 12.5915C31.3575 10.8032 31.089 9.83317 30.8625 9.1865C30.5625 8.3315 30.207 7.71984 29.6295 7.07817C29.0969 6.46996 28.4486 6.00186 27.732 5.70817C27.15 5.4565 26.277 5.15817 24.6675 5.0765V5.0765ZM15.8925 25.6515C17.0695 26.1959 18.3801 26.2694 19.6004 25.8594C20.8207 25.4494 21.8751 24.5814 22.5834 23.4036C23.2917 22.2258 23.6101 20.8113 23.4841 19.4017C23.3581 17.9921 22.7955 16.6748 21.8925 15.6748C21.3169 15.0356 20.6208 14.5462 19.8545 14.2417C19.0882 13.9373 18.2706 13.8254 17.4607 13.9142C16.6508 14.003 15.8687 14.2901 15.1707 14.7551C14.4727 15.22 13.8761 15.8511 13.424 16.6029C12.9718 17.3548 12.6753 18.2087 12.5558 19.1031C12.4363 19.9976 12.4967 20.9103 12.7328 21.7757C12.9689 22.6411 13.3747 23.4375 13.9211 24.1077C14.4674 24.7779 15.1407 25.3051 15.8925 25.6515ZM12.003 13.3365C12.7905 12.4615 13.7255 11.7673 14.7544 11.2938C15.7834 10.8202 16.8863 10.5765 18 10.5765C19.1137 10.5765 20.2166 10.8202 21.2456 11.2938C22.2745 11.7673 23.2095 12.4615 23.997 13.3365C24.7845 14.2115 25.4092 15.2504 25.8355 16.3937C26.2617 17.537 26.481 18.7623 26.481 19.9998C26.481 21.2373 26.2617 22.4627 25.8355 23.606C25.4092 24.7493 24.7845 25.7881 23.997 26.6632C22.4065 28.4304 20.2493 29.4232 18 29.4232C15.7507 29.4232 13.5935 28.4304 12.003 26.6632C10.4125 24.8959 9.51896 22.4991 9.51896 19.9998C9.51896 17.5006 10.4125 15.1037 12.003 13.3365V13.3365ZM28.362 11.9798C28.5572 11.7753 28.7134 11.5293 28.8215 11.2565C28.9295 10.9836 28.9872 10.6895 28.9911 10.3914C28.995 10.0933 28.9451 9.79742 28.8442 9.52119C28.7434 9.24496 28.5936 8.99402 28.4039 8.78324C28.2142 8.57245 27.9884 8.4061 27.7398 8.29403C27.4912 8.18197 27.2249 8.12646 26.9566 8.13081C26.6883 8.13515 26.4236 8.19926 26.178 8.31933C25.9325 8.4394 25.7111 8.613 25.527 8.82984C25.169 9.25155 24.9729 9.81171 24.9806 10.3914C24.9882 10.9711 25.1988 11.5246 25.5677 11.9346C25.9367 12.3445 26.4349 12.5786 26.9566 12.587C27.4783 12.5955 27.9825 12.3777 28.362 11.9798V11.9798Z" fill="white"/>
</svg>
