<svg width="36" height="40" viewBox="0 0 36 40" fill="none" xmlns="http://www.w3.org/2000/svg">
<path fill-rule="evenodd" clip-rule="evenodd" d="M14.1435 14.9485H19.7145V18.0318C20.517 16.2585 22.575 14.6652 25.6665 14.6652C31.593 14.6652 33 18.1952 33 24.6718V36.6668H27V26.1468C27 22.4585 26.1975 20.3785 24.1545 20.3785C21.321 20.3785 20.1435 22.6202 20.1435 26.1452V36.6668H14.1435V14.9485V14.9485ZM3.855 36.3835H9.855V14.6652H3.855V36.3835V36.3835ZM10.7145 7.5835C10.7147 8.14229 10.615 8.69555 10.4211 9.21114C10.2272 9.72673 9.94298 10.1944 9.585 10.5868C8.8596 11.3879 7.87772 11.8363 6.855 11.8335C5.83408 11.8327 4.85447 11.3855 4.128 10.5885C3.77132 10.1947 3.48808 9.72654 3.29452 9.21088C3.10095 8.69523 3.00087 8.1422 3 7.5835C3 6.45516 3.405 5.37516 4.1295 4.5785C4.85533 3.78043 5.83536 3.333 6.8565 3.3335C7.8795 3.3335 8.8605 3.78183 9.585 4.5785C10.308 5.37516 10.7145 6.45516 10.7145 7.5835Z" fill="white"/>
</svg>
