<svg width="416" height="499" viewBox="0 0 416 499" fill="none" xmlns="http://www.w3.org/2000/svg">
<mask id="mask0_58_3" style="mask-type:alpha" maskUnits="userSpaceOnUse" x="0" y="0" width="416" height="499">
<rect width="416" height="499" fill="#5E3BEE"/>
</mask>
<g mask="url(#mask0_58_3)">
<mask id="mask1_58_3" style="mask-type:alpha" maskUnits="userSpaceOnUse" x="8" y="4" width="505" height="506">
<circle cx="260.809" cy="257.063" r="251.606" transform="rotate(-40.5478 260.809 257.063)" fill="#F1F0FB" stroke="white"/>
</mask>
<g mask="url(#mask1_58_3)">
<line x1="-208.659" y1="332.348" x2="421.467" y2="-206.741" stroke="#F1F0FB" stroke-width="2"/>
<line x1="-177.878" y1="368.328" x2="452.248" y2="-170.761" stroke="#F1F0FB" stroke-width="2"/>
<line x1="-148.76" y1="402.362" x2="481.365" y2="-136.727" stroke="#F1F0FB" stroke-width="2"/>
<line x1="-118.811" y1="437.369" x2="511.315" y2="-101.72" stroke="#F1F0FB" stroke-width="2"/>
<line x1="-91.3574" y1="469.459" x2="538.768" y2="-69.6301" stroke="#F1F0FB" stroke-width="2"/>
<line x1="-60.576" y1="505.438" x2="569.55" y2="-33.6506" stroke="#F1F0FB" stroke-width="2"/>
<line x1="-31.4586" y1="539.473" x2="598.667" y2="0.383802" stroke="#F1F0FB" stroke-width="2"/>
<line x1="-1.50922" y1="574.48" x2="628.617" y2="35.3906" stroke="#F1F0FB" stroke-width="2"/>
<line x1="25.9444" y1="606.569" x2="656.07" y2="67.4805" stroke="#F1F0FB" stroke-width="2"/>
<line x1="56.7257" y1="642.549" x2="686.852" y2="103.46" stroke="#F1F0FB" stroke-width="2"/>
<line x1="85.8432" y1="676.583" x2="715.969" y2="137.494" stroke="#F1F0FB" stroke-width="2"/>
<line x1="115.793" y1="711.591" x2="745.918" y2="172.502" stroke="#F1F0FB" stroke-width="2"/>
</g>
</g>
</svg>
